<svg width="512" height="512" viewBox="0 0 512 512" fill="none" xmlns="http://www.w3.org/2000/svg">
<path d="M462 0H50C22.4297 0 0 22.4297 0 50V462C0 489.57 22.4297 512 50 512H462C489.57 512 512 489.57 512 462V50C512 22.4297 489.57 0 462 0ZM492 462C492 478.543 478.543 492 462 492H50C33.457 492 20 478.543 20 462V50C20 33.457 33.457 20 50 20H462C478.543 20 492 33.457 492 50V462Z" fill="white"/>
<path d="M255.979 90C162.118 90 86 166.203 86 260.207C86 335.393 134.705 399.179 202.28 421.705C210.78 423.273 213.883 418.018 213.883 413.504C213.883 409.456 213.734 398.755 213.649 384.557C166.368 394.834 156.38 361.734 156.38 361.734C148.666 342.069 137.51 336.834 137.51 336.834C122.061 326.281 138.657 326.493 138.657 326.493C155.721 327.701 164.689 344.039 164.689 344.039C179.861 370.041 204.49 362.539 214.18 358.174C215.71 347.176 220.109 339.674 224.975 335.415C187.235 331.113 147.54 316.512 147.54 251.307C147.54 232.722 154.17 217.528 165.05 205.619C163.286 201.317 157.464 184.004 166.708 160.588C166.708 160.588 180.988 156.01 213.458 178.028C227.015 174.256 241.55 172.37 256.021 172.306C270.45 172.391 285.006 174.256 298.585 178.049C331.034 156.032 345.292 160.609 345.292 160.609C354.557 184.046 348.735 201.338 346.992 205.64C357.894 217.549 364.46 232.743 364.46 251.328C364.46 316.703 324.722 331.092 286.855 335.309C292.954 340.564 298.394 350.948 298.394 366.82C298.394 389.579 298.181 407.931 298.181 413.504C298.181 418.06 301.241 423.358 309.869 421.684C377.337 399.136 426 335.372 426 260.207C426 166.203 349.883 90 255.979 90Z" fill="#5C6BC0"/>
<rect x="15.5" y="15.5" width="481" height="481" rx="34.5" stroke="#5C6BC0" stroke-width="31"/>
</svg>
