<svg width="514" height="512" viewBox="0 0 514 512" fill="none" xmlns="http://www.w3.org/2000/svg">
<path d="M256.979 90C163.118 90 87 166.203 87 260.207C87 335.393 135.705 399.179 203.28 421.705C211.78 423.273 214.883 418.018 214.883 413.504C214.883 409.456 214.734 398.755 214.649 384.557C167.368 394.834 157.38 361.734 157.38 361.734C149.666 342.069 138.51 336.834 138.51 336.834C123.061 326.281 139.657 326.493 139.657 326.493C156.721 327.701 165.689 344.039 165.689 344.039C180.861 370.041 205.49 362.539 215.18 358.174C216.71 347.176 221.109 339.674 225.975 335.415C188.235 331.113 148.54 316.512 148.54 251.307C148.54 232.722 155.17 217.528 166.05 205.619C164.286 201.317 158.464 184.004 167.708 160.588C167.708 160.588 181.988 156.01 214.458 178.028C228.015 174.256 242.55 172.37 257.021 172.306C271.45 172.391 286.006 174.256 299.585 178.049C332.034 156.032 346.292 160.609 346.292 160.609C355.557 184.046 349.735 201.338 347.992 205.64C358.894 217.549 365.46 232.743 365.46 251.328C365.46 316.703 325.722 331.092 287.855 335.309C293.954 340.564 299.394 350.948 299.394 366.82C299.394 389.579 299.181 407.931 299.181 413.504C299.181 418.06 302.241 423.358 310.869 421.684C378.337 399.136 427 335.372 427 260.207C427 166.203 350.883 90 256.979 90Z" fill="white"/>
<rect x="15.5" y="15.5" width="483" height="481" rx="109.5" stroke="white" stroke-width="31"/>
</svg>
