<svg width="514" height="512" viewBox="0 0 514 512" fill="none" xmlns="http://www.w3.org/2000/svg">
<rect width="514" height="512" rx="177" fill="#0077B7"/>
<path d="M173.55 407H111.443V206.333H173.55V407ZM179.747 142.401C179.747 122.308 163.458 106 143.391 106C123.248 106 107 122.308 107 142.401C107 162.5 123.248 178.808 143.391 178.808C163.458 178.808 179.747 162.5 179.747 142.401ZM406 296.601C406 242.734 394.629 202.782 331.749 202.782C301.534 202.782 281.253 217.904 272.973 233.629H272.914V206.333H212.582V407H272.914V307.367C272.914 281.275 279.551 255.997 311.869 255.997C343.748 255.997 344.78 285.836 344.78 309.025V407H406V296.601Z" fill="white"/>
<path d="M173.55 407H111.443V206.333H173.55V407ZM179.747 142.401C179.747 122.308 163.458 106 143.391 106C123.248 106 107 122.308 107 142.401C107 162.5 123.248 178.808 143.391 178.808C163.458 178.808 179.747 162.5 179.747 142.401ZM406 296.601C406 242.734 394.629 202.782 331.749 202.782C301.534 202.782 281.253 217.904 272.973 233.629H272.914V206.333H212.582V407H272.914V307.367C272.914 281.275 279.551 255.997 311.869 255.997C343.748 255.997 344.78 285.836 344.78 309.025V407H406V296.601Z" stroke="black"/>
<rect x="15.5" y="15.5" width="483" height="481" rx="109.5" stroke="#0077B7" stroke-width="31"/>
</svg>
