<svg width="514" height="512" viewBox="0 0 514 512" fill="none" xmlns="http://www.w3.org/2000/svg">
<path d="M173.55 406H111.443V205.333H173.55V406ZM179.747 141.401C179.747 121.308 163.458 105 143.391 105C123.248 105 107 121.308 107 141.401C107 161.5 123.248 177.808 143.391 177.808C163.458 177.808 179.747 161.5 179.747 141.401ZM406 295.601C406 241.734 394.629 201.782 331.749 201.782C301.534 201.782 281.253 216.904 272.973 232.629H272.914V205.333H212.582V406H272.914V306.367C272.914 280.275 279.551 254.997 311.869 254.997C343.748 254.997 344.78 284.836 344.78 308.025V406H406V295.601Z" fill="white"/>
<rect x="15.5" y="15.5" width="483" height="481" rx="109.5" stroke="white" stroke-width="31"/>
</svg>
