<svg width="512" height="512" viewBox="0 0 512 512" fill="none" xmlns="http://www.w3.org/2000/svg">
<path d="M160.008 423H90.0078V197H160.008V423ZM166.992 124.996C166.992 102.367 148.633 84 126.016 84C103.312 84 85 102.367 85 124.996C85 147.633 103.312 166 126.016 166C148.633 166 166.992 147.633 166.992 124.996ZM422 298.664C422 237.996 409.184 193 338.312 193C304.258 193 281.398 210.031 272.066 227.742H272V197H204V423H272V310.789C272 281.402 279.48 252.934 315.906 252.934C351.836 252.934 353 286.539 353 312.656V423H422V298.664ZM512 452V60C512 26.9141 485.086 0 452 0H60C26.9141 0 0 26.9141 0 60V452C0 485.086 26.9141 512 60 512H452C485.086 512 512 485.086 512 452V452ZM452 40C463.027 40 472 48.9727 472 60V452C472 463.027 463.027 472 452 472H60C48.9727 472 40 463.027 40 452V60C40 48.9727 48.9727 40 60 40H452Z" fill="white"/>
<rect x="3" y="3" width="506" height="506" rx="63" stroke="black" stroke-width="6"/>
</svg>
