<svg width="512" height="512" viewBox="0 0 512 512" fill="none" xmlns="http://www.w3.org/2000/svg">
<path d="M117.951 0.850586H394.049C458.923 0.850586 511.15 53.077 511.15 117.951V394.049C511.15 458.923 458.923 511.149 394.049 511.149H117.951C53.0773 511.149 0.850586 458.923 0.850586 394.049V117.951C0.850586 53.077 53.0773 0.850586 117.951 0.850586V0.850586Z" fill="url(#paint0_linear)"/>
<path d="M112.655 145.966C109.967 145.966 107.434 146.43 105.036 147.384L153.054 196.819L201.603 247.14L202.489 248.203L203.907 249.621L205.324 251.038L208.159 254.051L249.798 296.753C250.492 297.184 252.501 299.045 254.07 299.829C256.092 300.84 258.284 301.771 260.542 301.852C262.98 301.939 265.472 301.241 267.665 300.174C269.308 299.375 270.038 298.229 271.947 296.753L320.142 246.963L368.868 196.819L415.823 148.447C412.808 146.814 409.47 145.966 405.9 145.966H112.655ZM97.9489 151.991C92.8282 156.843 89.6211 164.137 89.6211 172.367V334.671C89.6211 341.335 91.7615 347.389 95.2911 352.035L102.024 345.656L152.168 296.93L196.642 253.873L195.756 252.81L147.03 202.666L98.3033 152.345L97.9489 151.991ZM422.201 153.585L374.715 202.666L326.166 252.81L325.28 253.696L371.526 298.525L421.67 347.251L424.682 350.086C427.382 345.754 428.935 340.418 428.935 334.671V172.367C428.935 165.029 426.391 158.374 422.201 153.585ZM202.312 259.721L158.015 302.777L107.694 351.504L101.315 357.705C104.678 359.871 108.505 361.249 112.655 361.249H405.9C410.89 361.249 415.415 359.329 419.189 356.288L416 353.098L365.679 304.372L319.433 259.721L277.794 302.6C275.54 304.094 274.034 305.751 271.834 306.769C268.292 308.406 264.411 309.792 260.509 309.732C256.597 309.672 252.762 308.141 249.251 306.414C247.489 305.547 246.55 304.686 244.483 302.954L202.312 259.721Z" fill="white"/>
<defs>
<linearGradient id="paint0_linear" x1="259.573" y1="509.101" x2="260.07" y2="7.01109" gradientUnits="userSpaceOnUse">
<stop stop-color="#70EFFF"/>
<stop offset="1" stop-color="#5770FF"/>
</linearGradient>
</defs>
</svg>
