<svg width="514" height="512" viewBox="0 0 514 512" fill="none" xmlns="http://www.w3.org/2000/svg">
<path d="M185.749 184H330.87L291.988 223.858L291.963 223.883L291.939 223.908L258.202 258.625L231.286 231.129L228.658 228.348L228.284 227.951L227.897 227.567L226.474 226.149L226.45 226.173L226.474 226.149L226.209 225.884L225.527 225.069L224.615 224.128L185.749 184ZM122.336 274.794V234.079L142.798 255.054L124.137 273.05L124.113 273.073L124.089 273.096L122.336 274.794ZM213.248 327.282H183.542L198.791 312.518L213.248 327.282ZM303.44 327.282L317.863 312.488L333.245 327.282H303.44ZM390.975 237.388V271.403L373.92 254.935L390.975 237.388ZM222.087 233.399L221.044 232.335L225.231 236.61L225.189 236.567L222.676 234.001L222.087 233.399Z" fill="white" stroke="white" stroke-width="72"/>
<rect x="15.5" y="15.5" width="483" height="481" rx="109.5" stroke="white" stroke-width="31"/>
</svg>
